<mxfile host="app.diagrams.net" modified="2023-12-21T11:13:51.639Z" agent="Mozilla/5.0 (X11; Linux x86_64; rv:120.0) Gecko/20100101 Firefox/120.0" version="22.1.11" etag="V5QnXYe3p0T6bYFgkDEW" type="github">
  <diagram name="Page-1" id="Ya_T6IqrYS370r4F31ik">
    <mxGraphModel>
      <root>
        <mxCell id="0" />
        <mxCell id="1" parent="0" />
      </root>
    </mxGraphModel>
  </diagram>
</mxfile>
